Coordinates
version=1
nRows=7
nColumns=40
inDegrees=yes

Units are S.I. units (second, meters, Newtons, ...)
Angles are in degrees.

endheader
time	pelvis_tilt	pelvis_list	pelvis_rotation	pelvis_tx	pelvis_ty	pelvis_tz	hip_flexion_r	hip_adduction_r	hip_rotation_r	knee_angle_r	knee_angle_r_beta	ankle_angle_r	subtalar_angle_r	mtp_angle_r	hip_flexion_l	hip_adduction_l	hip_rotation_l	knee_angle_l	knee_angle_l_beta	ankle_angle_l	subtalar_angle_l	mtp_angle_l	lumbar_extension	lumbar_bending	lumbar_rotation	arm_flex_r	arm_add_r	arm_rot_r	elbow_flex_r	pro_sup_r	wrist_flex_r	wrist_dev_r	arm_flex_l	arm_add_l	arm_rot_l	elbow_flex_l	pro_sup_l	wrist_flex_l	wrist_dev_l
      3.38000000	      4.10901765	     -2.68009888	      2.83165967	      0.64171778	      0.89902428	     -0.99263248	     -5.15796170	      4.92311661	    -17.55659796	    -17.02382169	     -0.29712174	     11.54076839	      5.84792533	     -5.02885218	     18.24958080	      4.11997293	      6.65261211	    -32.14679178	     -0.56106736	      4.79060967	      2.96232867	    -11.52740143	    -10.96813050	      4.12267074	      5.07168191	     14.57185811	    -13.97088972	     15.18331942	     17.35381804	     89.95437384	      0.00000000	      0.00000000	      1.22433916	      9.12313449	    -15.01363523	     21.98261486	     89.95437384	      0.00000000	      0.00000000
      3.39000000	      3.72828933	     -2.87307024	      2.76470765	      0.64795454	      0.89780240	     -0.99256934	     -5.14657204	      5.12042083	    -17.41389723	    -17.09730497	     -0.29840426	     11.69919459	      5.96633832	     -5.12205504	     19.10090299	      4.15240353	      6.34793365	    -30.31472182	     -0.52909171	      3.65182161	      2.50912307	    -11.25494627	    -10.65516903	      4.26969056	      5.22962400	     14.92316866	    -14.11848299	     15.40589340	     17.98092072	     89.95437384	      0.00000000	      0.00000000	      0.96016545	      8.97770698	    -14.86921208	     21.94840669	     89.95437384	      0.00000000	      0.00000000
      3.40000000	      3.50099460	     -2.95743338	      2.70004980	      0.65439264	      0.89678644	     -0.99261625	     -5.34052843	      5.18823155	    -17.37175180	    -17.15662187	     -0.29943954	     11.93452532	      6.03001394	     -5.23994484	     19.71279824	      4.14659754	      6.40460213	    -28.47579731	     -0.49699642	      2.17806025	      2.05823041	    -10.96079011	    -10.50657362	      4.30615093	      5.34926439	     15.27393670	    -14.26353658	     15.76685204	     18.57034537	     89.95437384	      0.00000000	      0.00000000	      0.71786258	      8.81398275	    -14.62859744	     21.81611026	     89.95437384	      0.00000000	      0.00000000
      3.41000000	      3.41550330	     -2.93975434	      2.53742991	      0.66107258	      0.89604325	     -0.99261537	     -5.72572789	      5.12181347	    -17.38166075	    -17.18582342	     -0.29994920	     12.19408198	      6.12658012	     -5.43939311	     20.02881302	      4.09685977	      6.76588552	    -26.51378019	     -0.46275276	      0.48123026	      1.50726123	    -10.70362758	    -10.52576796	      4.21151863	      5.54421082	     15.63179129	    -14.37044219	     16.25095138	     19.09635646	     89.95437384	      0.00000000	      0.00000000	      0.52611449	      8.61091320	    -14.26014393	     21.62120720	     89.95437384	      0.00000000	      0.00000000
      3.42000000	      3.13018982	     -3.11078126	      2.47841799	      0.66751636	      0.89495871	     -0.99281813	     -5.82922899	      5.28251669	    -17.21136958	    -17.27952338	     -0.30158458	     12.23894183	      6.25598570	     -5.53121854	     20.60660911	      4.14358196	      6.73398453	    -24.66693278	     -0.43051919	     -0.97585047	      1.13020093	    -10.41785287	    -10.33509015	      4.36993028	      5.58071162	     15.99169186	    -14.46301711	     16.40042551	     19.64978072	     89.95437384	      0.00000000	      0.00000000	      0.28122051	      8.41333711	    -14.10176797	     21.44826920	     89.95437384	      0.00000000	      0.00000000
      3.43000000	      3.26473252	     -2.97658613	      2.37448512	      0.67457960	      0.89456250	     -0.99305196	     -6.47727951	      5.07394613	    -17.36659800	    -17.33021929	     -0.30246939	     12.39944019	      6.54715077	     -5.87038722	     20.49739553	      3.99351130	      7.46936581	    -22.66095546	     -0.39550828	     -2.42472265	      0.38926087	    -10.26537147	    -10.58738007	      4.17479092	      5.66323986	     16.33189010	    -14.48474507	     16.75294285	     20.08467760	     89.95437384	      0.00000000	      0.00000000	      0.11581295	      8.19228562	    -13.57489072	     21.13486536	     89.95437384	      0.00000000	      0.00000000
      3.44000000	      2.96960276	     -3.19066875	      2.31311712	      0.68142909	      0.89335766	     -0.99329733	     -6.62245065	      5.25841468	    -17.35869873	    -17.36088912	     -0.30300468	     12.52668289	      6.61545999	     -5.92721945	     21.07918377	      4.10907105	      7.71106772	    -21.17697017	     -0.36960786	     -2.97546913	      0.16017005	    -10.10845096	    -10.33317301	      4.38341503	      5.65811471	     16.66115825	    -14.44842779	     16.76983230	     20.40510383	     89.95437384	      0.00000000	      0.00000000	     -0.14958162	      8.02367185	    -13.57336257	     20.91092196	     89.95437384	      0.00000000	      0.00000000
